<svg id="svg184" xmlns="http://www.w3.org/2000/svg" xmlns:xlink="http://www.w3.org/1999/xlink" viewBox="0 0 604.699 432.979"><defs><clipPath id="clip-path" transform="translate(0 0.555)"><rect x="119.923" y="105.947" width="99.95" height="99.95" fill="none"/></clipPath><clipPath id="clip-path-2" transform="translate(0 0.555)"><rect x="154.906" y="70.965" width="99.95" height="99.95" fill="none"/></clipPath><clipPath id="clip-path-3" transform="translate(0 0.555)"><rect x="116.453" y="86.892" width="49.605" height="10.995" transform="translate(-23.957 126.939) rotate(-44.999)" fill="none"/></clipPath><clipPath id="clip-path-4" transform="translate(0 0.555)"><rect x="208.407" y="86.892" width="49.605" height="10.995" transform="translate(2.974 191.96) rotate(-44.999)" fill="none"/></clipPath><clipPath id="clip-path-5" transform="translate(0 0.555)"><polygon points="254.855 170.915 246.859 162.919 211.784 197.995 219.873 205.897 254.855 170.915" fill="none"/></clipPath><clipPath id="clip-path-6" transform="translate(0 0.555)"><rect x="116.453" y="178.847" width="49.605" height="10.994" transform="translate(-88.978 153.875) rotate(-45)" fill="none"/></clipPath><clipPath id="clip-path-7" transform="translate(0 0.555)"><rect x="432.283" y="105.947" width="99.951" height="99.95" fill="none"/></clipPath><clipPath id="clip-path-8" transform="translate(0 0.555)"><rect x="467.265" y="70.965" width="99.951" height="99.95" fill="none"/></clipPath><clipPath id="clip-path-9" transform="translate(0 0.555)"><rect x="428.813" y="86.892" width="49.604" height="10.995" transform="translate(67.543 347.832) rotate(-45.003)" fill="none"/></clipPath><clipPath id="clip-path-10" transform="translate(0 0.555)"><rect x="520.767" y="86.892" width="49.605" height="10.995" transform="translate(94.458 412.827) rotate(-44.999)" fill="none"/></clipPath><clipPath id="clip-path-11" transform="translate(0 0.555)"><polygon points="567.215 170.915 559.219 162.919 524.143 197.995 532.233 205.897 567.215 170.915" fill="none"/></clipPath><clipPath id="clip-path-12" transform="translate(0 0.555)"><rect x="428.812" y="178.847" width="49.605" height="10.994" transform="translate(2.522 374.776) rotate(-45.004)" fill="none"/></clipPath><clipPath id="clip-path-13" transform="translate(0 0.555)"><rect x="276.102" y="105.947" width="99.951" height="99.95" fill="none"/></clipPath><clipPath id="clip-path-14" transform="translate(0 0.555)"><rect x="311.085" y="70.965" width="99.951" height="99.95" fill="none"/></clipPath><clipPath id="clip-path-15" transform="translate(0 0.555)"><rect x="272.632" y="86.892" width="49.605" height="10.995" transform="translate(21.794 237.391) rotate(-45.003)" fill="none"/></clipPath><clipPath id="clip-path-16" transform="translate(0 0.555)"><rect x="364.587" y="86.892" width="49.605" height="10.995" transform="translate(48.73 302.415) rotate(-45.003)" fill="none"/></clipPath><clipPath id="clip-path-17" transform="translate(0 0.555)"><polygon points="411.035 170.915 403.039 162.919 367.963 197.995 376.052 205.897 411.035 170.915" fill="none"/></clipPath><clipPath id="clip-path-18" transform="translate(0 0.555)"><rect x="272.632" y="178.847" width="49.605" height="10.995" transform="translate(-43.229 264.333) rotate(-45.004)" fill="none"/></clipPath></defs><title>MultiCube-Icon-Illustrator</title><g id="g193"><g id="g191"><g id="g244"><path id="path2" d="M18.99,394.8H585.708q.488,0,.969.022t.963.067q.478.043.953.11c.315.044.629.1.94.154s.621.125.929.2.61.154.912.241.6.182.9.284.587.21.876.326.574.238.856.367.56.265.833.408.544.292.809.447.527.319.784.487.509.344.756.525.49.368.727.561.47.392.7.6.448.416.664.632.427.438.632.665.4.459.6.7.38.48.561.727.356.5.524.757.331.517.487.783.305.535.448.809.278.552.407.834.252.567.368.856.224.581.326.876.2.594.283.9.168.605.242.912.138.616.2.928.11.625.154.941.081.634.111.953.051.64.066.962.022.645.022.969v-.363c0,.324-.008.647-.022.969s-.037.643-.066.963-.067.636-.111.952-.1.63-.154.941-.126.621-.2.928-.154.611-.242.913-.182.6-.283.895-.211.588-.326.877-.238.574-.368.856-.265.559-.407.833-.292.544-.448.809-.318.527-.487.784-.343.509-.524.756-.368.49-.561.727-.393.47-.6.7-.415.448-.632.664-.437.427-.664.632-.459.4-.7.6-.48.381-.727.562-.5.356-.756.524-.518.331-.784.487-.535.305-.809.448-.551.278-.833.407-.567.252-.856.368-.581.224-.876.325-.6.2-.9.284-.606.168-.912.241-.617.139-.929.2-.625.11-.94.154-.634.081-.953.111-.641.052-.963.066-.644.022-.969.022H18.99q-.486,0-.969-.022c-.322-.014-.643-.037-.962-.066s-.637-.066-.953-.111-.629-.1-.941-.154-.621-.125-.928-.2-.611-.153-.912-.241-.6-.182-.9-.284-.588-.21-.876-.325-.575-.238-.856-.368-.56-.265-.834-.407-.543-.292-.809-.448-.527-.318-.783-.487-.509-.343-.757-.524-.489-.369-.727-.562-.469-.392-.7-.6-.449-.415-.665-.632-.427-.437-.632-.664-.4-.46-.6-.7-.38-.48-.561-.727-.356-.5-.525-.756-.331-.518-.486-.784-.306-.535-.448-.809-.279-.552-.408-.833-.252-.567-.367-.856-.224-.581-.326-.877-.2-.594-.284-.895-.168-.606-.241-.913-.139-.616-.2-.928-.11-.625-.154-.941-.081-.633-.11-.952-.052-.64-.067-.963S0,413.753,0,413.429v.364q0-.487.022-.97t.067-.962q.044-.479.11-.953c.044-.316.1-.629.154-.941s.125-.621.2-.928.154-.611.241-.912.182-.6.284-.9.21-.587.326-.876.238-.575.367-.856.265-.56.408-.834.292-.543.448-.809.318-.527.486-.783.344-.509.525-.756.368-.49.561-.728.392-.469.6-.7.416-.449.632-.665.438-.427.665-.632.459-.4.7-.6.48-.38.727-.561.5-.356.757-.525.517-.331.783-.486.535-.306.809-.448.552-.279.834-.408.567-.252.856-.367.581-.224.876-.326.594-.2.9-.284.605-.168.912-.241.616-.139.928-.2.625-.11.941-.154.634-.081.953-.11.64-.052.962-.067.645-.022.97-.022Z" transform="translate(0 0.555)" fill="#34495e"/><path id="path4" d="M0,37.618H604.7V413.793H0Z" transform="translate(0 0.555)" fill="#34495e"/><path id="path6" d="M0,18.809H604.7V37.617H0Z" transform="translate(0 0.555)" fill="#6b7d8f"/><path id="path8" d="M18.991-.555H585.708q.488,0,.97.022t.962.066c.319.03.637.066.953.111s.629.095.94.154.621.125.929.2.61.153.912.241.6.182.9.284.587.21.876.325.574.238.856.368.56.265.834.407.543.292.808.448.527.318.784.487.509.343.756.524.49.369.727.562.47.392.7.6.448.415.664.631.427.438.632.665.4.46.6.7.38.48.561.727.356.5.524.756.331.518.487.784.305.535.448.809.278.552.407.833.252.567.368.856.224.581.326.877.2.594.283.895.169.606.242.913.138.616.2.928.11.625.154.941.081.633.111.952.051.64.066.963.022.645.022.969v-.363c0,.324-.008.647-.022.969s-.037.643-.066.962-.067.637-.111.953-.1.629-.154.941-.126.621-.2.928-.154.611-.242.912-.182.6-.283.9-.21.588-.326.876-.238.575-.368.856-.265.56-.407.834-.292.543-.448.809-.318.527-.487.784-.343.508-.524.756-.368.489-.561.727-.393.469-.6.7-.415.449-.632.665-.437.427-.664.632-.459.4-.7.6-.479.38-.727.561-.5.356-.756.525-.518.331-.784.487-.535.3-.808.447-.552.279-.834.408-.567.252-.856.367-.581.225-.876.326-.6.2-.9.284-.606.168-.912.241-.617.139-.929.2-.625.11-.94.154-.634.081-.953.111-.641.051-.962.066-.645.022-.97.022H18.991q-.487,0-.97-.022t-.962-.066q-.479-.045-.953-.111c-.316-.044-.629-.1-.941-.154s-.621-.125-.928-.2-.611-.154-.912-.241-.6-.182-.9-.284-.587-.21-.876-.326-.575-.238-.856-.367-.56-.265-.834-.408-.543-.292-.809-.447-.527-.318-.783-.487-.509-.344-.756-.525-.49-.368-.728-.561-.469-.392-.7-.6-.449-.416-.665-.632S5,31.2,4.794,30.971s-.4-.459-.6-.7-.38-.48-.561-.727-.356-.5-.525-.756-.331-.518-.486-.784-.306-.535-.448-.809-.279-.552-.408-.834-.252-.567-.367-.856-.224-.581-.326-.876-.2-.594-.284-.9-.168-.6-.241-.912-.139-.616-.2-.928-.11-.625-.154-.941S.118,20.322.089,20s-.052-.64-.067-.962S0,18.4,0,18.072v.363q0-.486.022-.969c.015-.323.037-.643.067-.963s.066-.636.11-.952.1-.63.154-.941.125-.621.2-.928.154-.611.241-.913.182-.6.284-.895.21-.588.326-.877.238-.574.367-.856.265-.559.408-.833.292-.544.448-.809.318-.527.486-.784.344-.509.525-.756S4,6.469,4.2,6.232s.392-.47.6-.7.416-.448.632-.665.438-.426.665-.631.459-.4.7-.6.48-.381.728-.562.5-.356.756-.524.517-.331.783-.487.535-.3.809-.448.552-.278.834-.407.567-.252.856-.368.581-.224.876-.325.594-.2.9-.284S13.93.069,14.237,0s.617-.139.928-.2.625-.11.941-.154.634-.081.953-.111.64-.051.962-.066S18.666-.555,18.991-.555Z" transform="translate(0 0.555)" fill="#6b7d8f"/><path id="path10" d="M61.931,19.34a9,9,0,1,1,9,9A8.995,8.995,0,0,1,61.931,19.34Z" transform="translate(0 0.555)" fill="#c2deec"/><path id="path12" d="M37.943,19.34a9,9,0,1,1,9,9A8.995,8.995,0,0,1,37.943,19.34Z" transform="translate(0 0.555)" fill="#c2deec"/><path id="path14" d="M13.955,19.34a9,9,0,1,1,8.995,9A8.995,8.995,0,0,1,13.955,19.34Z" transform="translate(0 0.555)" fill="#c2deec"/><path id="path16" d="M91.2,132.919l8.481,8.481L45.962,195.113l-8.481-8.481Z" transform="translate(0 0.555)" fill="#fff"/><path id="path18" d="M37.722,96.437,46.2,87.956l53.473,53.473L91.2,149.91Z" transform="translate(0 0.555)" fill="#fff"/><g clip-path="url(#clip-path)"><g id="g27"><path id="path25" d="M119.923,105.947h99.95V205.9h-99.95Z" transform="translate(0 0.555)" fill="none" stroke="#fff" stroke-width="24"/></g></g><g clip-path="url(#clip-path-2)"><g id="g36"><path id="path34" d="M154.906,70.965h99.95v99.95h-99.95Z" transform="translate(0 0.555)" fill="none" stroke="#fff" stroke-width="24"/></g></g><g clip-path="url(#clip-path-3)"><g id="g45"><path id="path43" d="M154.906,70.965l7.774,7.774L127.6,113.815l-7.774-7.774Z" transform="translate(0 0.555)" fill="none" stroke="#fff" stroke-width="24"/></g></g><g clip-path="url(#clip-path-4)"><g id="g54"><path id="path52" d="M246.86,70.965l7.774,7.774-35.076,35.076-7.774-7.774Z" transform="translate(0 0.555)" fill="none" stroke="#fff" stroke-width="24"/></g></g><g clip-path="url(#clip-path-5)"><g id="g63"><path id="path61" d="M246.859,162.919l8,8L219.872,205.9l-8.089-7.9Z" transform="translate(0 0.555)" fill="none" stroke="#fff" stroke-width="24"/></g></g><g clip-path="url(#clip-path-6)"><g id="g72"><path id="path70" d="M154.906,162.919l7.774,7.774L127.6,205.769,119.83,198Z" transform="translate(0 0.555)" fill="none" stroke="#fff" stroke-width="24"/></g></g><g clip-path="url(#clip-path-7)"><g id="g81"><path id="path79" d="M432.283,105.947h99.95V205.9h-99.95Z" transform="translate(0 0.555)" fill="none" stroke="#fff" stroke-width="24"/></g></g><g clip-path="url(#clip-path-8)"><g id="g90"><path id="path88" d="M467.265,70.965h99.95v99.95h-99.95Z" transform="translate(0 0.555)" fill="none" stroke="#fff" stroke-width="24"/></g></g><g clip-path="url(#clip-path-9)"><g id="g99"><path id="path97" d="M467.265,70.965l7.774,7.774-35.076,35.076-7.774-7.774Z" transform="translate(0 0.555)" fill="none" stroke="#fff" stroke-width="24"/></g></g><g clip-path="url(#clip-path-10)"><g id="g108"><path id="path106" d="M559.22,70.965l7.774,7.774-35.076,35.076-7.774-7.774Z" transform="translate(0 0.555)" fill="none" stroke="#fff" stroke-width="24"/></g></g><g clip-path="url(#clip-path-11)"><g id="g117"><path id="path115" d="M559.219,162.919l8,8L532.232,205.9l-8.089-7.9Z" transform="translate(0 0.555)" fill="none" stroke="#fff" stroke-width="24"/></g></g><g clip-path="url(#clip-path-12)"><g id="g126"><path id="path124" d="M467.265,162.919l7.774,7.774-35.076,35.076L432.189,198Z" transform="translate(0 0.555)" fill="none" stroke="#fff" stroke-width="24"/></g></g><g clip-path="url(#clip-path-13)"><g id="g135"><path id="path133" d="M276.1,105.947h99.951V205.9H276.1Z" transform="translate(0 0.555)" fill="none" stroke="#fff" stroke-width="24"/></g></g><g clip-path="url(#clip-path-14)"><g id="g144"><path id="path142" d="M311.085,70.965h99.951v99.95H311.085Z" transform="translate(0 0.555)" fill="none" stroke="#fff" stroke-width="24"/></g></g><g clip-path="url(#clip-path-15)"><g id="g153"><path id="path151" d="M311.085,70.965l7.774,7.774-35.076,35.076-7.774-7.774Z" transform="translate(0 0.555)" fill="none" stroke="#fff" stroke-width="24"/></g></g><g clip-path="url(#clip-path-16)"><g id="g162"><path id="path160" d="M403.04,70.965l7.774,7.774-35.076,35.076-7.774-7.774Z" transform="translate(0 0.555)" fill="none" stroke="#fff" stroke-width="24"/></g></g><g clip-path="url(#clip-path-17)"><g id="g171"><path id="path169" d="M403.039,162.919l8,8L376.052,205.9l-8.089-7.9Z" transform="translate(0 0.555)" fill="none" stroke="#fff" stroke-width="24"/></g></g><g clip-path="url(#clip-path-18)"><g id="g180"><path id="path178" d="M311.085,162.919l7.774,7.774-35.076,35.076L276.009,198Z" transform="translate(0 0.555)" fill="none" stroke="#fff" stroke-width="24"/></g></g></g></g><path id="path182" d="M0,432.424,604.7,0V432.424Z" transform="translate(0 0.555)" fill-opacity="0.078"/></g></svg>